# xmcd
#
# Track frame offsets:
#	150
#	16892
#	33099
#	44915
#	59573
#	72334
#	87636
#	99304
#	112629
#	126054
#	142997
#	155471
#	168821
#	183170
#	194189
#	212362
#	232091
#	257672
#	275257
#	295339
#	311306
#	326607
#
# Disc length: 4608 seconds
#
# Revision: 1
# Processed by: cddbd v1.5.2PL0 Copyright (c) Steve Scherf et al.
# Submitted via: audiograbber 1.83.01
#
DISCID=3711fe16
DTITLE=Billie Holiday - BILLIE HOLIDAY - The Ultimate Collection [CD 1)
DYEAR=1900
DGENRE=Blues
TTITLE0=Stormy weather
TTITLE1=Lover come back to me
TTITLE2=My man
TTITLE3=He's funny that way
TTITLE4=Yesterdays
TTITLE5=Tenderly
TTITLE6=Remember
TTITLE7=Love for sale
TTITLE8=Moonglow
TTITLE9=Everything I have is yours
TTITLE10=If the moon turns green
TTITLE11=How deep is the ocean ?
TTITLE12=What a little moonlight can do
TTITLE13=I cried for you
TTITLE14=It had to be you
TTITLE15=Come rain or come shine
TTITLE16=I get a kick out of you
TTITLE17=I don't want to cry anymore
TTITLE18=( I don't stand a) Ghost of a chance
TTITLE19=A fine romance
TTITLE20=Gone with the wind
TTITLE21=Isn't this a lovely day?
EXTD=
EXTT0=
EXTT1=
EXTT2=
EXTT3=
EXTT4=
EXTT5=
EXTT6=
EXTT7=
EXTT8=
EXTT9=
EXTT10=
EXTT11=
EXTT12=
EXTT13=
EXTT14=
EXTT15=
EXTT16=
EXTT17=
EXTT18=
EXTT19=
EXTT20=
EXTT21=
PLAYORDER=
